<?xml version="1.0" encoding="UTF-8" standalone="no"?><!-- Generator: Gravit.io --><svg xmlns="http://www.w3.org/2000/svg" xmlns:xlink="http://www.w3.org/1999/xlink" style="isolation:isolate" viewBox="0 0 512 126" width="512pt" height="126pt"><defs><clipPath id="_clipPath_CRmWTmsyQrAmK0lXjbOJrA9WO0RTuhEy"><rect width="512" height="126"/></clipPath></defs><g clip-path="url(#_clipPath_CRmWTmsyQrAmK0lXjbOJrA9WO0RTuhEy)"><path d=" M 374.94 45.96 L 374.94 45.96 Q 382.54 45.96 386.62 51.92 L 386.62 51.92 L 386.62 51.92 Q 390.7 57.88 390.7 68.6 L 390.7 68.6 L 390.7 68.6 Q 390.7 75.16 388.66 80.28 L 388.66 80.28 L 388.66 80.28 Q 386.62 85.4 382.82 88.28 L 382.82 88.28 L 382.82 88.28 Q 379.02 91.16 373.82 91.16 L 373.82 91.16 L 373.82 91.16 Q 370.38 91.16 367.54 89.72 L 367.54 89.72 L 367.54 89.72 Q 364.7 88.28 362.7 85.72 L 362.7 85.72 L 362.06 89.8 L 350.86 89.8 L 350.86 30.44 L 363.5 29.08 L 363.5 51.64 L 363.5 51.64 Q 365.42 49 368.42 47.48 L 368.42 47.48 L 368.42 47.48 Q 371.42 45.96 374.94 45.96 L 374.94 45.96 L 374.94 45.96 Z  M 370.14 81.96 L 370.14 81.96 Q 377.58 81.96 377.58 68.6 L 377.58 68.6 L 377.58 68.6 Q 377.58 61 375.82 58.12 L 375.82 58.12 L 375.82 58.12 Q 374.06 55.24 370.7 55.24 L 370.7 55.24 L 370.7 55.24 Q 366.46 55.24 363.5 60.2 L 363.5 60.2 L 363.5 77.88 L 363.5 77.88 Q 364.7 79.8 366.42 80.88 L 366.42 80.88 L 366.42 80.88 Q 368.14 81.96 370.14 81.96 L 370.14 81.96 L 370.14 81.96 Z  M 432.38 77.48 L 432.38 77.48 Q 432.38 79.88 433.06 81 L 433.06 81 L 433.06 81 Q 433.74 82.12 435.26 82.68 L 435.26 82.68 L 432.62 90.92 L 432.62 90.92 Q 428.7 90.6 426.22 89.2 L 426.22 89.2 L 426.22 89.2 Q 423.74 87.8 422.38 84.76 L 422.38 84.76 L 422.38 84.76 Q 418.22 91.16 409.58 91.16 L 409.58 91.16 L 409.58 91.16 Q 403.26 91.16 399.5 87.48 L 399.5 87.48 L 399.5 87.48 Q 395.74 83.8 395.74 77.88 L 395.74 77.88 L 395.74 77.88 Q 395.74 70.92 400.86 67.24 L 400.86 67.24 L 400.86 67.24 Q 405.98 63.56 415.66 63.56 L 415.66 63.56 L 419.98 63.56 L 419.98 61.72 L 419.98 61.72 Q 419.98 57.96 418.38 56.56 L 418.38 56.56 L 418.38 56.56 Q 416.78 55.16 412.78 55.16 L 412.78 55.16 L 412.78 55.16 Q 410.7 55.16 407.74 55.76 L 407.74 55.76 L 407.74 55.76 Q 404.78 56.36 401.66 57.4 L 401.66 57.4 L 398.78 49.08 L 398.78 49.08 Q 402.78 47.56 406.98 46.76 L 406.98 46.76 L 406.98 46.76 Q 411.18 45.96 414.78 45.96 L 414.78 45.96 L 414.78 45.96 Q 423.9 45.96 428.14 49.72 L 428.14 49.72 L 428.14 49.72 Q 432.38 53.48 432.38 61 L 432.38 61 L 432.38 77.48 L 432.38 77.48 Z  M 413.26 82.12 L 413.26 82.12 Q 417.58 82.12 419.98 78.04 L 419.98 78.04 L 419.98 70.52 L 416.86 70.52 L 416.86 70.52 Q 412.54 70.52 410.42 72.04 L 410.42 72.04 L 410.42 72.04 Q 408.3 73.56 408.3 76.76 L 408.3 76.76 L 408.3 76.76 Q 408.3 79.32 409.62 80.72 L 409.62 80.72 L 409.62 80.72 Q 410.94 82.12 413.26 82.12 L 413.26 82.12 L 413.26 82.12 Z  M 467.34 45.96 L 467.34 45.96 Q 472.86 45.96 475.98 49.32 L 475.98 49.32 L 475.98 49.32 Q 479.1 52.68 479.1 58.76 L 479.1 58.76 L 479.1 89.8 L 466.46 89.8 L 466.46 60.92 L 466.46 60.92 Q 466.46 57.72 465.46 56.48 L 465.46 56.48 L 465.46 56.48 Q 464.46 55.24 462.46 55.24 L 462.46 55.24 L 462.46 55.24 Q 458.62 55.24 455.1 60.76 L 455.1 60.76 L 455.1 89.8 L 442.46 89.8 L 442.46 47.32 L 453.5 47.32 L 454.38 52.36 L 454.38 52.36 Q 457.1 49.16 460.26 47.56 L 460.26 47.56 L 460.26 47.56 Q 463.42 45.96 467.34 45.96 L 467.34 45.96 L 467.34 45.96 Z  M 262.46 29.08 L 275.1 30.44 L 275.1 89.8 L 263.9 89.8 L 263.26 84.84 L 263.26 84.84 Q 258.78 91.16 251.18 91.16 L 251.18 91.16 L 251.18 91.16 Q 243.26 91.16 239.14 85.08 L 239.14 85.08 L 239.14 85.08 Q 235.02 79 235.02 68.44 L 235.02 68.44 L 235.02 68.44 Q 235.02 61.96 237.18 56.84 L 237.18 56.84 L 237.18 56.84 Q 239.34 51.72 243.3 48.84 L 243.3 48.84 L 243.3 48.84 Q 247.26 45.96 252.38 45.96 L 252.38 45.96 L 252.38 45.96 Q 258.46 45.96 262.46 49.96 L 262.46 49.96 L 262.46 29.08 L 262.46 29.08 Z  M 255.1 81.88 L 255.1 81.88 Q 259.5 81.88 262.46 77.08 L 262.46 77.08 L 262.46 58.76 L 262.46 58.76 Q 260.94 56.92 259.38 56.04 L 259.38 56.04 L 259.38 56.04 Q 257.82 55.16 255.82 55.16 L 255.82 55.16 L 255.82 55.16 Q 252.3 55.16 250.22 58.44 L 250.22 58.44 L 250.22 58.44 Q 248.14 61.72 248.14 68.52 L 248.14 68.52 L 248.14 68.52 Q 248.14 75.96 249.94 78.92 L 249.94 78.92 L 249.94 78.92 Q 251.74 81.88 255.1 81.88 L 255.1 81.88 L 255.1 81.88 Z  M 66.3 47.32 L 66.3 89.8 L 55.34 89.8 L 54.78 84.44 L 54.78 84.44 Q 50.14 91.16 41.9 91.16 L 41.9 91.16 L 41.9 91.16 Q 36.06 91.16 33.06 87.64 L 33.06 87.64 L 33.06 87.64 Q 30.06 84.12 30.06 77.8 L 30.06 77.8 L 30.06 47.32 L 42.7 47.32 L 42.7 76.2 L 42.7 76.2 Q 42.7 79.32 43.7 80.56 L 43.7 80.56 L 43.7 80.56 Q 44.7 81.8 46.78 81.8 L 46.78 81.8 L 46.78 81.8 Q 50.78 81.8 53.66 76.84 L 53.66 76.84 L 53.66 47.32 L 66.3 47.32 L 66.3 47.32 Z  M 101.1 45.96 L 101.1 45.96 Q 106.62 45.96 109.74 49.32 L 109.74 49.32 L 109.74 49.32 Q 112.86 52.68 112.86 58.76 L 112.86 58.76 L 112.86 89.8 L 100.22 89.8 L 100.22 60.92 L 100.22 60.92 Q 100.22 57.72 99.22 56.48 L 99.22 56.48 L 99.22 56.48 Q 98.22 55.24 96.22 55.24 L 96.22 55.24 L 96.22 55.24 Q 92.38 55.24 88.86 60.76 L 88.86 60.76 L 88.86 89.8 L 76.22 89.8 L 76.22 47.32 L 87.26 47.32 L 88.14 52.36 L 88.14 52.36 Q 90.86 49.16 94.02 47.56 L 94.02 47.56 L 94.02 47.56 Q 97.18 45.96 101.1 45.96 L 101.1 45.96 L 101.1 45.96 Z  M 122.38 47.32 L 135.02 47.32 L 135.02 89.8 L 122.38 89.8 L 122.38 47.32 L 122.38 47.32 Z  M 128.62 24.92 L 128.62 24.92 Q 131.9 24.92 134.02 26.96 L 134.02 26.96 L 134.02 26.96 Q 136.14 29 136.14 32.12 L 136.14 32.12 L 136.14 32.12 Q 136.14 35.24 134.02 37.28 L 134.02 37.28 L 134.02 37.28 Q 131.9 39.32 128.62 39.32 L 128.62 39.32 L 128.62 39.32 Q 125.34 39.32 123.26 37.28 L 123.26 37.28 L 123.26 37.28 Q 121.18 35.24 121.18 32.12 L 121.18 32.12 L 121.18 32.12 Q 121.18 29 123.26 26.96 L 123.26 26.96 L 123.26 26.96 Q 125.34 24.92 128.62 24.92 L 128.62 24.92 L 128.62 24.92 Z  M 164.38 29.08 L 164.38 29.08 Q 171.9 29.08 178.46 32.28 L 178.46 32.28 L 174.94 40.36 L 174.94 40.36 Q 170.22 38.44 165.82 38.44 L 165.82 38.44 L 165.82 38.44 Q 162.14 38.44 160.74 39.72 L 160.74 39.72 L 160.74 39.72 Q 159.34 41 159.34 44.12 L 159.34 44.12 L 159.34 47.32 L 182.94 47.32 L 182.94 89.8 L 170.3 89.8 L 170.3 56.12 L 159.34 56.12 L 159.34 89.8 L 146.7 89.8 L 146.7 56.12 L 140.22 56.12 L 140.22 47.32 L 146.7 47.32 L 146.7 43.64 L 146.7 43.64 Q 146.7 37.08 151.02 33.08 L 151.02 33.08 L 151.02 33.08 Q 155.34 29.08 164.38 29.08 L 164.38 29.08 L 164.38 29.08 Z  M 229.9 67.72 L 229.9 67.72 Q 229.9 70.36 229.66 72.28 L 229.66 72.28 L 203.34 72.28 L 203.34 72.28 Q 203.98 77.64 206.38 79.8 L 206.38 79.8 L 206.38 79.8 Q 208.78 81.96 213.02 81.96 L 213.02 81.96 L 213.02 81.96 Q 215.58 81.96 217.98 81.04 L 217.98 81.04 L 217.98 81.04 Q 220.38 80.12 223.18 78.2 L 223.18 78.2 L 228.38 85.24 L 228.38 85.24 Q 220.94 91.16 211.82 91.16 L 211.82 91.16 L 211.82 91.16 Q 201.5 91.16 195.98 85.08 L 195.98 85.08 L 195.98 85.08 Q 190.46 79 190.46 68.76 L 190.46 68.76 L 190.46 68.76 Q 190.46 62.28 192.78 57.12 L 192.78 57.12 L 192.78 57.12 Q 195.1 51.96 199.58 48.96 L 199.58 48.96 L 199.58 48.96 Q 204.06 45.96 210.3 45.96 L 210.3 45.96 L 210.3 45.96 Q 219.5 45.96 224.7 51.72 L 224.7 51.72 L 224.7 51.72 Q 229.9 57.48 229.9 67.72 L 229.9 67.72 L 229.9 67.72 Z  M 217.5 64.68 L 217.5 64.12 L 217.5 64.12 Q 217.34 54.36 210.62 54.36 L 210.62 54.36 L 210.62 54.36 Q 207.34 54.36 205.54 56.76 L 205.54 56.76 L 205.54 56.76 Q 203.74 59.16 203.34 64.68 L 203.34 64.68 L 217.5 64.68 L 217.5 64.68 Z " fill="rgb(29,32,38)"/><linearGradient id="_lgradient_1" x1="5.05265200706484e-7" y1="0.5000000227774024" x2="1.000000036040865" y2="0.5000000227774024" gradientTransform="matrix(61.137,0,0,74,282.5,26)" gradientUnits="userSpaceOnUse"><stop offset="0%" stop-opacity="1" style="stop-color:rgb(172,120,255)"/><stop offset="10%" stop-opacity="1" style="stop-color:rgb(150,118,255)"/><stop offset="20%" stop-opacity="1" style="stop-color:rgb(130,116,255)"/><stop offset="30.000000000000004%" stop-opacity="1" style="stop-color:rgb(112,115,255)"/><stop offset="40%" stop-opacity="1" style="stop-color:rgb(96,113,255)"/><stop offset="50%" stop-opacity="1" style="stop-color:rgb(81,112,255)"/><stop offset="60%" stop-opacity="1" style="stop-color:rgb(69,111,255)"/><stop offset="70%" stop-opacity="1" style="stop-color:rgb(59,110,255)"/><stop offset="80%" stop-opacity="1" style="stop-color:rgb(51,110,255)"/><stop offset="89.99999999999999%" stop-opacity="1" style="stop-color:rgb(46,109,255)"/><stop offset="99.99999999999999%" stop-opacity="1" style="stop-color:rgb(44,109,255)"/></linearGradient><path d=" M 313.284 26.005 L 313.28 26.002 L 313.28 26.008 C 310.671 27.697 308.13 29.025 303.863 29.025 L 303.863 29.025 C 299.591 29.025 294.294 26.288 294.294 26.288 L 294.294 26.288 L 282.5 41.127 L 287.62 47.753 C 287.62 47.753 288.327 48.798 288.327 49.878 L 288.327 49.878 C 288.327 50.959 287.867 52.868 286.455 56.181 L 286.455 56.181 C 285.042 59.494 283.277 64.393 283.277 69.003 L 283.277 69.003 C 283.277 73.613 285.443 87.274 313.069 100 L 313.069 100 C 313.074 99.998 313.079 99.996 313.083 99.993 L 313.083 99.993 C 313.232 99.929 314.534 99.359 316.518 98.341 L 316.518 98.341 C 340.877 86.107 342.86 73.413 342.86 69.003 L 342.86 69.003 C 342.86 68.017 342.779 67.019 342.639 66.026 L 342.639 66.026 C 342.636 66.006 342.633 65.986 342.63 65.966 L 342.63 65.966 C 342.63 65.96 342.629 65.954 342.628 65.948 L 342.628 65.948 C 342.314 63.594 341.676 61.084 340.905 59.086 L 340.905 59.086 C 339.775 56.157 338.269 52.556 337.986 51.019 L 337.986 51.019 C 337.852 50.29 337.815 49.795 337.856 49.392 L 337.856 49.392 C 337.922 49.011 338.052 48.656 338.181 48.374 L 338.181 48.374 C 338.209 48.32 338.238 48.266 338.269 48.21 L 338.269 48.21 C 338.414 47.946 339.092 47.028 339.92 45.937 L 339.92 45.937 L 343.637 41.127 C 341.898 39.041 340.111 36.996 338.416 34.873 L 338.416 34.873 C 334.782 30.321 331.947 26.236 332.007 26.192 L 332.007 26.192 C 332.007 26.192 331.512 26.552 325.18 28.545 L 325.18 28.545 C 324.39 28.794 323.613 28.941 322.857 29.007 L 322.857 29.007 C 322.661 29.018 322.466 29.025 322.274 29.025 L 322.274 29.025 C 320.958 29.025 319.848 28.899 318.864 28.674 L 318.864 28.674 C 317.983 28.456 317.175 28.164 316.463 27.852 L 316.463 27.852 C 315.388 27.355 314.411 26.734 313.356 26.051 L 313.356 26.051 C 313.314 26.018 313.292 26 313.292 26 L 313.292 26 C 313.289 26.002 313.287 26.003 313.284 26.005 Z  M 313.069 36.253 C 314.48 36.837 316.029 37.318 317.772 37.627 L 317.772 37.627 C 319.05 37.881 320.418 38.035 321.863 38.035 L 321.863 38.035 C 322.386 38.035 322.907 38.014 323.426 37.973 L 323.426 37.973 C 325.341 37.857 327.243 37.47 328.969 36.984 L 328.969 36.984 C 330.061 38.437 331.191 39.921 332.275 41.317 L 332.275 41.317 L 331.425 42.417 L 331.266 42.653 C 330.99 43.06 330.567 43.748 330.161 44.654 L 330.161 44.654 C 329.626 45.796 329.286 46.937 329.132 48.141 L 329.132 48.141 C 329.05 48.694 329.002 49.274 329.002 49.878 L 329.002 49.878 C 329.002 52.493 329.805 55.542 331.604 59.763 L 331.604 59.763 C 333.029 63.106 333.661 65.531 333.91 67.231 L 333.91 67.231 C 333.992 67.863 334.036 68.448 334.028 68.933 L 334.028 68.933 C 333.959 73.381 330.521 78.738 322.682 84.284 L 322.682 84.284 C 319.101 86.818 315.58 88.736 313.066 90.05 L 313.066 90.05 C 313.059 90.047 313.051 90.045 313.044 90.045 L 313.044 90.045 C 302.516 84.683 297.467 80.207 294.998 76.757 L 294.998 76.757 C 292.524 73.301 292.085 70.193 292.085 69.003 L 292.085 69.003 C 292.085 67.407 291.872 65.275 294.327 59.902 L 294.327 59.902 C 296.233 55.729 296.929 52.632 296.929 50.017 L 296.929 50.017 C 296.929 46.517 295.466 43.801 294.786 42.794 L 294.786 42.794 L 294.626 42.559 L 293.69 41.348 L 297.139 36.975 C 299.217 37.563 301.556 38.009 303.863 38.009 L 303.863 38.009 C 307.583 38.009 310.545 37.298 313.069 36.253 Z " fill="url(#_lgradient_1)"/></g></svg>