<?xml version="1.0" encoding="UTF-8" standalone="no"?><!-- Generator: Gravit.io --><svg xmlns="http://www.w3.org/2000/svg" xmlns:xlink="http://www.w3.org/1999/xlink" style="isolation:isolate" viewBox="0 0 512 126" width="512pt" height="126pt"><defs><clipPath id="_clipPath_bZPG8seZ7noY27kiGKc3kCJdexotM1Nr"><rect width="512" height="126"/></clipPath></defs><g clip-path="url(#_clipPath_bZPG8seZ7noY27kiGKc3kCJdexotM1Nr)"><path d=" M 368.641 81.965 L 368.641 88.523 L 356.523 88.523 L 356.523 29.841 L 368.641 29.841 L 368.641 52.915 L 368.641 52.915 Q 372.957 45.943 381.174 45.943 L 381.174 45.943 L 381.174 45.943 Q 389.059 45.943 394.205 51.67 L 394.205 51.67 L 394.205 51.67 Q 399.351 57.397 399.351 67.357 L 399.351 67.357 L 399.351 67.357 Q 399.351 76.238 394.412 82.63 L 394.412 82.63 L 394.412 82.63 Q 389.474 89.021 381.257 89.021 L 381.257 89.021 L 381.257 89.021 Q 372.874 89.021 368.641 81.965 L 368.641 81.965 Z  M 368.641 67.026 L 368.641 67.026 L 368.641 67.026 Q 368.641 72.42 371.214 75.658 L 371.214 75.658 L 371.214 75.658 Q 373.787 78.895 377.937 78.895 L 377.937 78.895 L 377.937 78.895 Q 381.755 78.895 384.411 75.782 L 384.411 75.782 L 384.411 75.782 Q 387.067 72.67 387.067 67.607 L 387.067 67.607 L 387.067 67.607 Q 387.067 62.128 384.452 59.057 L 384.452 59.057 L 384.452 59.057 Q 381.838 55.986 378.02 55.986 L 378.02 55.986 L 378.02 55.986 Q 374.202 55.986 371.421 58.891 L 371.421 58.891 L 371.421 58.891 Q 368.641 61.796 368.641 67.026 Z  M 420.674 80.223 L 420.674 80.223 L 420.674 80.223 Q 423.247 80.223 424.658 78.646 L 424.658 78.646 L 424.658 78.646 Q 426.069 77.069 426.069 74.33 L 426.069 74.33 L 426.069 71.259 L 422.168 71.259 L 422.168 71.259 Q 419.097 71.259 417.437 72.587 L 417.437 72.587 L 417.437 72.587 Q 415.777 73.914 415.777 75.989 L 415.777 75.989 L 415.777 75.989 Q 415.777 80.223 420.674 80.223 Z  M 426.65 88.523 L 426.65 83.377 L 426.65 83.377 Q 423.994 88.771 416.192 88.771 L 416.192 88.771 L 416.192 88.771 Q 410.05 88.771 406.605 85.286 L 406.605 85.286 L 406.605 85.286 Q 403.161 81.8 403.161 76.571 L 403.161 76.571 L 403.161 76.571 Q 403.161 70.512 407.601 67.15 L 407.601 67.15 L 407.601 67.15 Q 412.042 63.789 420.757 63.789 L 420.757 63.789 L 426.069 63.789 L 426.069 60.884 L 426.069 60.884 Q 426.069 55.571 419.014 55.571 L 419.014 55.571 L 419.014 55.571 Q 412.208 55.571 406.398 59.389 L 406.398 59.389 L 406.398 48.516 L 406.398 48.516 Q 411.378 45.694 420.757 45.694 L 420.757 45.694 L 420.757 45.694 Q 429.721 45.694 434.12 49.554 L 434.12 49.554 L 434.12 49.554 Q 438.519 53.413 438.519 61.547 L 438.519 61.547 L 438.519 88.523 L 426.65 88.523 Z  M 484.659 61.215 L 484.659 88.523 L 472.541 88.523 L 472.541 63.456 L 472.541 63.456 Q 472.541 59.721 470.798 57.771 L 470.798 57.771 L 470.798 57.771 Q 469.055 55.82 465.901 55.82 L 465.901 55.82 L 465.901 55.82 Q 462.581 55.82 460.381 58.435 L 460.381 58.435 L 460.381 58.435 Q 458.182 61.049 458.182 66.279 L 458.182 66.279 L 458.182 88.523 L 446.064 88.523 L 446.064 46.441 L 458.182 46.441 L 458.182 53.579 L 458.182 53.579 Q 459.759 50.093 463.037 48.06 L 463.037 48.06 L 463.037 48.06 Q 466.316 46.026 470.881 46.026 L 470.881 46.026 L 470.881 46.026 Q 477.355 46.026 481.007 49.886 L 481.007 49.886 L 481.007 49.886 Q 484.659 53.745 484.659 61.215 L 484.659 61.215 Z  M 67.937 46.441 L 67.937 88.523 L 55.819 88.523 L 55.819 81.8 L 55.819 81.8 Q 52.499 88.854 43.037 88.854 L 43.037 88.854 L 43.037 88.854 Q 36.563 88.854 32.952 85.244 L 32.952 85.244 L 32.952 85.244 Q 29.342 81.634 29.342 74.578 L 29.342 74.578 L 29.342 46.441 L 41.46 46.441 L 41.46 71.839 L 41.46 71.839 Q 41.46 79.226 47.933 79.226 L 47.933 79.226 L 47.933 79.226 Q 55.819 79.226 55.819 68.685 L 55.819 68.685 L 55.819 46.441 L 67.937 46.441 Z  M 114.492 61.215 L 114.492 88.523 L 102.374 88.523 L 102.374 63.456 L 102.374 63.456 Q 102.374 59.721 100.631 57.771 L 100.631 57.771 L 100.631 57.771 Q 98.888 55.82 95.733 55.82 L 95.733 55.82 L 95.733 55.82 Q 92.414 55.82 90.214 58.435 L 90.214 58.435 L 90.214 58.435 Q 88.015 61.049 88.015 66.279 L 88.015 66.279 L 88.015 88.523 L 75.897 88.523 L 75.897 46.441 L 88.015 46.441 L 88.015 53.579 L 88.015 53.579 Q 89.592 50.093 92.87 48.06 L 92.87 48.06 L 92.87 48.06 Q 96.149 46.026 100.714 46.026 L 100.714 46.026 L 100.714 46.026 Q 107.188 46.026 110.84 49.886 L 110.84 49.886 L 110.84 49.886 Q 114.492 53.745 114.492 61.215 L 114.492 61.215 Z  M 134.57 46.441 L 134.57 88.523 L 122.452 88.523 L 122.452 46.441 L 134.57 46.441 Z  M 133.491 29.26 L 133.491 29.26 L 133.491 29.26 Q 135.566 31.335 135.566 34.24 L 135.566 34.24 L 135.566 34.24 Q 135.566 37.145 133.491 39.22 L 133.491 39.22 L 133.491 39.22 Q 131.416 41.295 128.511 41.295 L 128.511 41.295 L 128.511 41.295 Q 125.606 41.295 123.531 39.22 L 123.531 39.22 L 123.531 39.22 Q 121.456 37.145 121.456 34.24 L 121.456 34.24 L 121.456 34.24 Q 121.456 31.335 123.531 29.26 L 123.531 29.26 L 123.531 29.26 Q 125.606 27.185 128.511 27.185 L 128.511 27.185 L 128.511 27.185 Q 131.416 27.185 133.491 29.26 Z  M 165.853 46.441 L 165.853 55.322 L 157.967 55.322 L 157.967 88.523 L 145.932 88.523 L 145.932 55.322 L 140.455 55.322 L 140.455 46.441 L 145.932 46.441 L 145.932 44.864 L 145.932 44.864 Q 145.932 37.228 150.207 32.995 L 150.207 32.995 L 150.207 32.995 Q 154.481 28.762 162.034 28.762 L 162.034 28.762 L 162.034 28.762 Q 165.936 28.762 168.342 29.592 L 168.342 29.592 L 168.342 39.386 L 168.342 39.386 Q 166.019 38.473 164.027 38.473 L 164.027 38.473 L 164.027 38.473 Q 160.955 38.473 159.462 39.884 L 159.462 39.884 L 159.462 39.884 Q 157.967 41.295 157.967 44.864 L 157.967 44.864 L 157.967 46.441 L 165.853 46.441 Z  M 182.195 46.441 L 182.195 88.523 L 170.078 88.523 L 170.078 46.441 L 182.195 46.441 Z  M 181.116 29.26 L 181.116 29.26 L 181.116 29.26 Q 183.191 31.335 183.191 34.24 L 183.191 34.24 L 183.191 34.24 Q 183.191 37.145 181.116 39.22 L 181.116 39.22 L 181.116 39.22 Q 179.041 41.295 176.136 41.295 L 176.136 41.295 L 176.136 41.295 Q 173.231 41.295 171.156 39.22 L 171.156 39.22 L 171.156 39.22 Q 169.081 37.145 169.081 34.24 L 169.081 34.24 L 169.081 34.24 Q 169.081 31.335 171.156 29.26 L 171.156 29.26 L 171.156 29.26 Q 173.231 27.185 176.136 27.185 L 176.136 27.185 L 176.136 27.185 Q 179.041 27.185 181.116 29.26 Z  M 223.604 75.989 L 223.604 86.116 L 223.604 86.116 Q 219.288 88.938 210.407 88.938 L 210.407 88.938 L 210.407 88.938 Q 200.032 88.938 194.264 82.92 L 194.264 82.92 L 194.264 82.92 Q 188.495 76.902 188.495 67.44 L 188.495 67.44 L 188.495 67.44 Q 188.495 57.397 194.098 51.712 L 194.098 51.712 L 194.098 51.712 Q 199.7 46.026 207.917 46.026 L 207.917 46.026 L 207.917 46.026 Q 216.383 46.026 221.28 50.965 L 221.28 50.965 L 221.28 50.965 Q 226.177 55.903 226.177 65.697 L 226.177 65.697 L 226.177 65.697 Q 226.177 67.607 225.513 72.255 L 225.513 72.255 L 200.779 72.255 L 200.779 72.255 Q 202.024 75.741 205.095 77.649 L 205.095 77.649 L 205.095 77.649 Q 208.166 79.559 212.482 79.559 L 212.482 79.559 L 212.482 79.559 Q 218.873 79.559 223.604 75.989 L 223.604 75.989 Z  M 208.415 55.239 L 208.415 55.239 L 208.415 55.239 Q 205.51 55.239 203.269 57.356 L 203.269 57.356 L 203.269 57.356 Q 201.028 59.473 200.281 63.622 L 200.281 63.622 L 214.889 63.622 L 214.889 62.626 L 214.889 62.626 Q 214.308 55.239 208.415 55.239 Z  M 243.018 67.607 L 243.018 67.607 L 243.018 67.607 Q 243.018 72.67 245.674 75.782 L 245.674 75.782 L 245.674 75.782 Q 248.33 78.895 252.148 78.895 L 252.148 78.895 L 252.148 78.895 Q 256.299 78.895 258.871 75.658 L 258.871 75.658 L 258.871 75.658 Q 261.444 72.42 261.444 67.026 L 261.444 67.026 L 261.444 67.026 Q 261.444 61.796 258.664 58.891 L 258.664 58.891 L 258.664 58.891 Q 255.883 55.986 252.065 55.986 L 252.065 55.986 L 252.065 55.986 Q 248.247 55.986 245.633 59.057 L 245.633 59.057 L 245.633 59.057 Q 243.018 62.128 243.018 67.607 Z  M 273.563 29.841 L 273.563 88.523 L 261.444 88.523 L 261.444 81.965 L 261.444 81.965 Q 257.212 89.021 248.828 89.021 L 248.828 89.021 L 248.828 89.021 Q 240.611 89.021 235.673 82.63 L 235.673 82.63 L 235.673 82.63 Q 230.734 76.238 230.734 67.357 L 230.734 67.357 L 230.734 67.357 Q 230.734 57.397 235.88 51.67 L 235.88 51.67 L 235.88 51.67 Q 241.026 45.943 248.911 45.943 L 248.911 45.943 L 248.911 45.943 Q 257.128 45.943 261.444 52.915 L 261.444 52.915 L 261.444 29.841 L 273.563 29.841 Z " fill="rgb(29,32,38)"/><linearGradient id="_lgradient_0" x1="0.14644695057711998" y1="0.14644698278923146" x2="0.8535533999719578" y2="0.8535534321840692" gradientTransform="matrix(64.637,0,0,78.236,284,23.882)" gradientUnits="userSpaceOnUse"><stop offset="0%" stop-opacity="1" style="stop-color:rgb(172,120,255)"/><stop offset="10%" stop-opacity="1" style="stop-color:rgb(150,118,255)"/><stop offset="20%" stop-opacity="1" style="stop-color:rgb(130,116,255)"/><stop offset="30.000000000000004%" stop-opacity="1" style="stop-color:rgb(112,115,255)"/><stop offset="40%" stop-opacity="1" style="stop-color:rgb(96,113,255)"/><stop offset="50%" stop-opacity="1" style="stop-color:rgb(81,112,255)"/><stop offset="60%" stop-opacity="1" style="stop-color:rgb(69,111,255)"/><stop offset="70%" stop-opacity="1" style="stop-color:rgb(59,110,255)"/><stop offset="80%" stop-opacity="1" style="stop-color:rgb(51,110,255)"/><stop offset="89.99999999999999%" stop-opacity="1" style="stop-color:rgb(46,109,255)"/><stop offset="99.99999999999999%" stop-opacity="1" style="stop-color:rgb(44,109,255)"/></linearGradient><path d=" M 316.546 23.887 L 316.542 23.884 L 316.542 23.89 C 313.784 25.676 311.097 27.08 306.586 27.08 L 306.586 27.08 C 302.069 27.08 296.469 24.186 296.469 24.186 L 296.469 24.186 L 284 39.875 L 289.413 46.88 C 289.413 46.88 290.161 47.985 290.161 49.127 L 290.161 49.127 C 290.161 50.27 289.674 52.288 288.181 55.791 L 288.181 55.791 C 286.688 59.293 284.821 64.473 284.821 69.347 L 284.821 69.347 C 284.821 74.221 287.111 88.664 316.319 102.118 L 316.319 102.118 C 316.324 102.116 316.33 102.114 316.334 102.111 L 316.334 102.111 C 316.491 102.043 317.868 101.44 319.965 100.364 L 319.965 100.364 C 345.719 87.43 347.816 74.009 347.816 69.347 L 347.816 69.347 C 347.816 68.304 347.73 67.249 347.582 66.199 L 347.582 66.199 C 347.579 66.178 347.576 66.157 347.572 66.136 L 347.572 66.136 C 347.572 66.129 347.571 66.123 347.57 66.117 L 347.57 66.117 C 347.238 63.628 346.564 60.974 345.749 58.862 L 345.749 58.862 C 344.554 55.765 342.962 51.958 342.662 50.333 L 342.662 50.333 C 342.521 49.562 342.482 49.039 342.525 48.613 L 342.525 48.613 C 342.595 48.21 342.732 47.835 342.869 47.537 L 342.869 47.537 C 342.898 47.48 342.929 47.423 342.962 47.363 L 342.962 47.363 C 343.115 47.084 343.832 46.114 344.707 44.96 L 344.707 44.96 L 348.637 39.875 C 346.798 37.669 344.909 35.507 343.117 33.263 L 343.117 33.263 C 339.275 28.45 336.278 24.131 336.341 24.085 L 336.341 24.085 C 336.341 24.085 335.818 24.465 329.123 26.573 L 329.123 26.573 C 328.288 26.836 327.467 26.991 326.667 27.061 L 326.667 27.061 C 326.46 27.073 326.254 27.08 326.051 27.08 L 326.051 27.08 C 324.66 27.08 323.486 26.947 322.446 26.709 L 322.446 26.709 C 321.514 26.478 320.66 26.17 319.907 25.84 L 319.907 25.84 C 318.771 25.314 317.738 24.658 316.622 23.936 L 316.622 23.936 C 316.578 23.901 316.555 23.882 316.555 23.882 L 316.555 23.882 C 316.552 23.884 316.55 23.885 316.546 23.887 Z  M 316.319 34.722 C 317.811 35.339 319.448 35.848 321.291 36.174 L 321.291 36.174 C 322.642 36.443 324.089 36.606 325.616 36.606 L 325.616 36.606 C 326.169 36.606 326.72 36.584 327.269 36.54 L 327.269 36.54 C 329.294 36.418 331.304 36.008 333.129 35.495 L 333.129 35.495 C 334.284 37.031 335.478 38.6 336.625 40.076 L 336.625 40.076 L 335.726 41.239 L 335.558 41.488 C 335.266 41.918 334.819 42.646 334.39 43.604 L 334.39 43.604 C 333.824 44.811 333.464 46.017 333.302 47.29 L 333.302 47.29 C 333.215 47.875 333.164 48.488 333.164 49.127 L 333.164 49.127 C 333.164 51.891 334.013 55.115 335.915 59.578 L 335.915 59.578 C 337.422 63.112 338.09 65.676 338.353 67.473 L 338.353 67.473 C 338.44 68.141 338.486 68.76 338.478 69.273 L 338.478 69.273 C 338.405 73.975 334.77 79.639 326.482 85.502 L 326.482 85.502 C 322.696 88.182 318.974 90.209 316.316 91.599 L 316.316 91.599 C 316.308 91.595 316.3 91.593 316.293 91.593 L 316.293 91.593 C 305.162 85.924 299.824 81.192 297.213 77.545 L 297.213 77.545 C 294.598 73.891 294.134 70.605 294.134 69.347 L 294.134 69.347 C 294.134 67.659 293.909 65.405 296.504 59.725 L 296.504 59.725 C 298.519 55.313 299.255 52.038 299.255 49.274 L 299.255 49.274 C 299.255 45.573 297.708 42.702 296.989 41.637 L 296.989 41.637 L 296.82 41.389 L 295.831 40.108 L 299.477 35.485 C 301.674 36.107 304.147 36.578 306.586 36.578 L 306.586 36.578 C 310.519 36.578 313.651 35.827 316.319 34.722 Z " fill="url(#_lgradient_0)"/></g></svg>